<?xml version="1.0" encoding="UTF-8" standalone="no"?>
<!DOCTYPE svg PUBLIC "-//W3C//DTD SVG 1.1//EN"
 "http://www.w3.org/Graphics/SVG/1.1/DTD/svg11.dtd">
<!-- Generated by graphviz version 2.44.1 (20200629.0846)
 -->
<!-- Title: dependencies Pages: 1 -->
<svg width="3116pt" height="284pt"
 viewBox="0.00 0.00 3116.00 284.00" xmlns="http://www.w3.org/2000/svg" xmlns:xlink="http://www.w3.org/1999/xlink">
<g id="graph0" class="graph" transform="scale(1 1) rotate(0) translate(4 280)">
<title>dependencies</title>
<polygon fill="white" stroke="transparent" points="-4,4 -4,-280 3112,-280 3112,4 -4,4"/>
<text text-anchor="start" x="1533.01" y="-42.4" font-family="sans-serif" font-weight="bold" font-size="14.00">Legend</text>
<polygon fill="#ffffb3" stroke="transparent" points="1320,-10 1320,-30 1340,-30 1340,-10 1320,-10"/>
<text text-anchor="start" x="1343.63" y="-15.4" font-family="sans-serif" font-size="14.00"> &#160;Declarations</text>
<polygon fill="#8dd3c7" stroke="transparent" points="1433,-10 1433,-30 1453,-30 1453,-10 1433,-10"/>
<text text-anchor="start" x="1456.73" y="-15.4" font-family="sans-serif" font-size="14.00"> &#160;Module</text>
<polygon fill="#80b1d3" stroke="transparent" points="1519,-10 1519,-30 1539,-30 1539,-10 1519,-10"/>
<text text-anchor="start" x="1542.78" y="-15.4" font-family="sans-serif" font-size="14.00"> &#160;Bootstrap</text>
<polygon fill="#fdb462" stroke="transparent" points="1616,-10 1616,-30 1636,-30 1636,-10 1616,-10"/>
<text text-anchor="start" x="1639.67" y="-15.4" font-family="sans-serif" font-size="14.00"> &#160;Providers</text>
<polygon fill="#fb8072" stroke="transparent" points="1712,-10 1712,-30 1732,-30 1732,-10 1712,-10"/>
<text text-anchor="start" x="1735.73" y="-15.4" font-family="sans-serif" font-size="14.00"> &#160;Exports</text>
<g id="clust1" class="cluster">
<title>cluster_AppModule</title>
<polygon fill="none" stroke="black" stroke-dasharray="1,5" points="8,-70 8,-268 3100,-268 3100,-70 8,-70"/>
</g>
<g id="clust22" class="cluster">
<title>cluster_AppModule_imports</title>
<polygon fill="none" stroke="black" points="2948,-78 2948,-130 3092,-130 3092,-78 2948,-78"/>
</g>
<g id="clust24" class="cluster">
<title>cluster_AppModule_bootstrap</title>
<polygon fill="none" stroke="black" points="1468,-208 1468,-260 1592,-260 1592,-208 1468,-208"/>
</g>
<g id="clust2" class="cluster">
<title>cluster_AppModule_declarations</title>
<polygon fill="none" stroke="black" points="16,-78 16,-130 2940,-130 2940,-78 16,-78"/>
</g>
<!-- AlertsComponent -->
<g id="node1" class="node">
<title>AlertsComponent</title>
<polygon fill="#ffffb3" stroke="black" points="2931.54,-122 2816.46,-122 2816.46,-86 2931.54,-86 2931.54,-122"/>
<text text-anchor="middle" x="2874" y="-99.8" font-family="Times,serif" font-size="14.00">AlertsComponent</text>
</g>
<!-- AppModule -->
<g id="node20" class="node">
<title>AppModule</title>
<polygon fill="#8dd3c7" stroke="black" points="1571.66,-187 1568.66,-191 1547.66,-191 1544.66,-187 1488.34,-187 1488.34,-151 1571.66,-151 1571.66,-187"/>
<text text-anchor="middle" x="1530" y="-164.8" font-family="Times,serif" font-size="14.00">AppModule</text>
</g>
<!-- AlertsComponent&#45;&gt;AppModule -->
<g id="edge1" class="edge">
<title>AlertsComponent&#45;&gt;AppModule</title>
<path fill="none" stroke="black" d="M2874,-122.01C2874,-144.49 2874,-180 2874,-180 2874,-180 1581.7,-180 1581.7,-180"/>
<polygon fill="black" stroke="black" points="1581.7,-176.5 1571.7,-180 1581.7,-183.5 1581.7,-176.5"/>
</g>
<!-- AlunoCursosComponent -->
<g id="node2" class="node">
<title>AlunoCursosComponent</title>
<polygon fill="#ffffb3" stroke="black" points="2798.72,-122 2643.28,-122 2643.28,-86 2798.72,-86 2798.72,-122"/>
<text text-anchor="middle" x="2721" y="-99.8" font-family="Times,serif" font-size="14.00">AlunoCursosComponent</text>
</g>
<!-- AlunoCursosComponent&#45;&gt;AppModule -->
<g id="edge2" class="edge">
<title>AlunoCursosComponent&#45;&gt;AppModule</title>
<path fill="none" stroke="black" d="M2721,-122.04C2721,-143.66 2721,-177 2721,-177 2721,-177 1581.69,-177 1581.69,-177"/>
<polygon fill="black" stroke="black" points="1581.69,-173.5 1571.69,-177 1581.69,-180.5 1581.69,-173.5"/>
</g>
<!-- ApoiadoresComponent -->
<g id="node3" class="node">
<title>ApoiadoresComponent</title>
<polygon fill="#ffffb3" stroke="black" points="2624.86,-122 2479.14,-122 2479.14,-86 2624.86,-86 2624.86,-122"/>
<text text-anchor="middle" x="2552" y="-99.8" font-family="Times,serif" font-size="14.00">ApoiadoresComponent</text>
</g>
<!-- ApoiadoresComponent&#45;&gt;AppModule -->
<g id="edge3" class="edge">
<title>ApoiadoresComponent&#45;&gt;AppModule</title>
<path fill="none" stroke="black" d="M2552,-122.13C2552,-142.57 2552,-173 2552,-173 2552,-173 1581.97,-173 1581.97,-173"/>
<polygon fill="black" stroke="black" points="1581.97,-169.5 1571.97,-173 1581.97,-176.5 1581.97,-169.5"/>
</g>
<!-- AppComponent -->
<g id="node4" class="node">
<title>AppComponent</title>
<polygon fill="#ffffb3" stroke="black" points="2460.94,-122 2355.06,-122 2355.06,-86 2460.94,-86 2460.94,-122"/>
<text text-anchor="middle" x="2408" y="-99.8" font-family="Times,serif" font-size="14.00">AppComponent</text>
</g>
<!-- AppComponent&#45;&gt;AppModule -->
<g id="edge4" class="edge">
<title>AppComponent&#45;&gt;AppModule</title>
<path fill="none" stroke="black" d="M2408,-122.11C2408,-141.34 2408,-169 2408,-169 2408,-169 1581.76,-169 1581.76,-169"/>
<polygon fill="black" stroke="black" points="1581.76,-165.5 1571.76,-169 1581.76,-172.5 1581.76,-165.5"/>
</g>
<!-- AreaLoginComponent -->
<g id="node5" class="node">
<title>AreaLoginComponent</title>
<polygon fill="#ffffb3" stroke="black" points="2336.97,-122 2195.03,-122 2195.03,-86 2336.97,-86 2336.97,-122"/>
<text text-anchor="middle" x="2266" y="-99.8" font-family="Times,serif" font-size="14.00">AreaLoginComponent</text>
</g>
<!-- AreaLoginComponent&#45;&gt;AppModule -->
<g id="edge5" class="edge">
<title>AreaLoginComponent&#45;&gt;AppModule</title>
<path fill="none" stroke="black" d="M2266,-122.27C2266,-140.56 2266,-166 2266,-166 2266,-166 1581.68,-166 1581.68,-166"/>
<polygon fill="black" stroke="black" points="1581.68,-162.5 1571.68,-166 1581.68,-169.5 1581.68,-162.5"/>
</g>
<!-- CadastroComponent -->
<g id="node6" class="node">
<title>CadastroComponent</title>
<polygon fill="#ffffb3" stroke="black" points="2176.59,-122 2045.41,-122 2045.41,-86 2176.59,-86 2176.59,-122"/>
<text text-anchor="middle" x="2111" y="-99.8" font-family="Times,serif" font-size="14.00">CadastroComponent</text>
</g>
<!-- CadastroComponent&#45;&gt;AppModule -->
<g id="edge6" class="edge">
<title>CadastroComponent&#45;&gt;AppModule</title>
<path fill="none" stroke="black" d="M2111,-122.03C2111,-139.06 2111,-162 2111,-162 2111,-162 1581.78,-162 1581.78,-162"/>
<polygon fill="black" stroke="black" points="1581.78,-158.5 1571.78,-162 1581.78,-165.5 1581.78,-158.5"/>
</g>
<!-- CursosComponent -->
<g id="node7" class="node">
<title>CursosComponent</title>
<polygon fill="#ffffb3" stroke="black" points="2027.22,-122 1906.78,-122 1906.78,-86 2027.22,-86 2027.22,-122"/>
<text text-anchor="middle" x="1967" y="-99.8" font-family="Times,serif" font-size="14.00">CursosComponent</text>
</g>
<!-- CursosComponent&#45;&gt;AppModule -->
<g id="edge7" class="edge">
<title>CursosComponent&#45;&gt;AppModule</title>
<path fill="none" stroke="black" d="M1967,-122.01C1967,-138.05 1967,-159 1967,-159 1967,-159 1581.9,-159 1581.9,-159"/>
<polygon fill="black" stroke="black" points="1581.9,-155.5 1571.9,-159 1581.9,-162.5 1581.9,-155.5"/>
</g>
<!-- DeleteCategoriaComponent -->
<g id="node8" class="node">
<title>DeleteCategoriaComponent</title>
<polygon fill="#ffffb3" stroke="black" points="1889.29,-122 1716.71,-122 1716.71,-86 1889.29,-86 1889.29,-122"/>
<text text-anchor="middle" x="1803" y="-99.8" font-family="Times,serif" font-size="14.00">DeleteCategoriaComponent</text>
</g>
<!-- DeleteCategoriaComponent&#45;&gt;AppModule -->
<g id="edge8" class="edge">
<title>DeleteCategoriaComponent&#45;&gt;AppModule</title>
<path fill="none" stroke="black" d="M1803,-122.12C1803,-136.78 1803,-155 1803,-155 1803,-155 1581.76,-155 1581.76,-155"/>
<polygon fill="black" stroke="black" points="1581.76,-151.5 1571.76,-155 1581.76,-158.5 1581.76,-151.5"/>
</g>
<!-- DeleteProdutoComponent -->
<g id="node9" class="node">
<title>DeleteProdutoComponent</title>
<polygon fill="#ffffb3" stroke="black" points="1699.2,-122 1536.8,-122 1536.8,-86 1699.2,-86 1699.2,-122"/>
<text text-anchor="middle" x="1618" y="-99.8" font-family="Times,serif" font-size="14.00">DeleteProdutoComponent</text>
</g>
<!-- DeleteProdutoComponent&#45;&gt;AppModule -->
<g id="edge9" class="edge">
<title>DeleteProdutoComponent&#45;&gt;AppModule</title>
<path fill="none" stroke="black" d="M1554.36,-122.11C1554.36,-122.11 1554.36,-140.99 1554.36,-140.99"/>
<polygon fill="black" stroke="black" points="1550.86,-140.99 1554.36,-150.99 1557.86,-140.99 1550.86,-140.99"/>
</g>
<!-- FaleConoscoComponent -->
<g id="node10" class="node">
<title>FaleConoscoComponent</title>
<polygon fill="#ffffb3" stroke="black" points="1519.43,-122 1364.57,-122 1364.57,-86 1519.43,-86 1519.43,-122"/>
<text text-anchor="middle" x="1442" y="-99.8" font-family="Times,serif" font-size="14.00">FaleConoscoComponent</text>
</g>
<!-- FaleConoscoComponent&#45;&gt;AppModule -->
<g id="edge10" class="edge">
<title>FaleConoscoComponent&#45;&gt;AppModule</title>
<path fill="none" stroke="black" d="M1503.69,-122.11C1503.69,-122.11 1503.69,-140.99 1503.69,-140.99"/>
<polygon fill="black" stroke="black" points="1500.19,-140.99 1503.69,-150.99 1507.19,-140.99 1500.19,-140.99"/>
</g>
<!-- FooterComponent -->
<g id="node11" class="node">
<title>FooterComponent</title>
<polygon fill="#ffffb3" stroke="black" points="1346.88,-122 1229.12,-122 1229.12,-86 1346.88,-86 1346.88,-122"/>
<text text-anchor="middle" x="1288" y="-99.8" font-family="Times,serif" font-size="14.00">FooterComponent</text>
</g>
<!-- FooterComponent&#45;&gt;AppModule -->
<g id="edge11" class="edge">
<title>FooterComponent&#45;&gt;AppModule</title>
<path fill="none" stroke="black" d="M1288,-122.12C1288,-136.78 1288,-155 1288,-155 1288,-155 1478.12,-155 1478.12,-155"/>
<polygon fill="black" stroke="black" points="1478.12,-158.5 1488.12,-155 1478.12,-151.5 1478.12,-158.5"/>
</g>
<!-- HomeComponent -->
<g id="node12" class="node">
<title>HomeComponent</title>
<polygon fill="#ffffb3" stroke="black" points="1210.55,-122 1095.45,-122 1095.45,-86 1210.55,-86 1210.55,-122"/>
<text text-anchor="middle" x="1153" y="-99.8" font-family="Times,serif" font-size="14.00">HomeComponent</text>
</g>
<!-- HomeComponent&#45;&gt;AppModule -->
<g id="edge12" class="edge">
<title>HomeComponent&#45;&gt;AppModule</title>
<path fill="none" stroke="black" d="M1153,-122.01C1153,-138.05 1153,-159 1153,-159 1153,-159 1478.21,-159 1478.21,-159"/>
<polygon fill="black" stroke="black" points="1478.21,-162.5 1488.21,-159 1478.21,-155.5 1478.21,-162.5"/>
</g>
<!-- LoginComponent -->
<g id="node13" class="node">
<title>LoginComponent</title>
<polygon fill="#ffffb3" stroke="black" points="1077.28,-122 962.72,-122 962.72,-86 1077.28,-86 1077.28,-122"/>
<text text-anchor="middle" x="1020" y="-99.8" font-family="Times,serif" font-size="14.00">LoginComponent</text>
</g>
<!-- LoginComponent&#45;&gt;AppModule -->
<g id="edge13" class="edge">
<title>LoginComponent&#45;&gt;AppModule</title>
<path fill="none" stroke="black" d="M1020,-122.03C1020,-139.06 1020,-162 1020,-162 1020,-162 1478.26,-162 1478.26,-162"/>
<polygon fill="black" stroke="black" points="1478.26,-165.5 1488.26,-162 1478.26,-158.5 1478.26,-165.5"/>
</g>
<!-- NavbarComponent -->
<g id="node14" class="node">
<title>NavbarComponent</title>
<polygon fill="#ffffb3" stroke="black" points="944.03,-122 821.97,-122 821.97,-86 944.03,-86 944.03,-122"/>
<text text-anchor="middle" x="883" y="-99.8" font-family="Times,serif" font-size="14.00">NavbarComponent</text>
</g>
<!-- NavbarComponent&#45;&gt;AppModule -->
<g id="edge14" class="edge">
<title>NavbarComponent&#45;&gt;AppModule</title>
<path fill="none" stroke="black" d="M883,-122.27C883,-140.56 883,-166 883,-166 883,-166 1478.05,-166 1478.05,-166"/>
<polygon fill="black" stroke="black" points="1478.05,-169.5 1488.05,-166 1478.05,-162.5 1478.05,-169.5"/>
</g>
<!-- PostCategoriaComponent -->
<g id="node15" class="node">
<title>PostCategoriaComponent</title>
<polygon fill="#ffffb3" stroke="black" points="803.87,-122 644.13,-122 644.13,-86 803.87,-86 803.87,-122"/>
<text text-anchor="middle" x="724" y="-99.8" font-family="Times,serif" font-size="14.00">PostCategoriaComponent</text>
</g>
<!-- PostCategoriaComponent&#45;&gt;AppModule -->
<g id="edge15" class="edge">
<title>PostCategoriaComponent&#45;&gt;AppModule</title>
<path fill="none" stroke="black" d="M724,-122.11C724,-141.34 724,-169 724,-169 724,-169 1478.08,-169 1478.08,-169"/>
<polygon fill="black" stroke="black" points="1478.08,-172.5 1488.08,-169 1478.08,-165.5 1478.08,-172.5"/>
</g>
<!-- PutCategoriaComponent -->
<g id="node16" class="node">
<title>PutCategoriaComponent</title>
<polygon fill="#ffffb3" stroke="black" points="626.43,-122 471.57,-122 471.57,-86 626.43,-86 626.43,-122"/>
<text text-anchor="middle" x="549" y="-99.8" font-family="Times,serif" font-size="14.00">PutCategoriaComponent</text>
</g>
<!-- PutCategoriaComponent&#45;&gt;AppModule -->
<g id="edge16" class="edge">
<title>PutCategoriaComponent&#45;&gt;AppModule</title>
<path fill="none" stroke="black" d="M549,-122.13C549,-142.57 549,-173 549,-173 549,-173 1478.16,-173 1478.16,-173"/>
<polygon fill="black" stroke="black" points="1478.16,-176.5 1488.16,-173 1478.16,-169.5 1478.16,-176.5"/>
</g>
<!-- PutProdutoComponent -->
<g id="node17" class="node">
<title>PutProdutoComponent</title>
<polygon fill="#ffffb3" stroke="black" points="454.34,-122 309.66,-122 309.66,-86 454.34,-86 454.34,-122"/>
<text text-anchor="middle" x="382" y="-99.8" font-family="Times,serif" font-size="14.00">PutProdutoComponent</text>
</g>
<!-- PutProdutoComponent&#45;&gt;AppModule -->
<g id="edge17" class="edge">
<title>PutProdutoComponent&#45;&gt;AppModule</title>
<path fill="none" stroke="black" d="M382,-122.04C382,-143.66 382,-177 382,-177 382,-177 1478.12,-177 1478.12,-177"/>
<polygon fill="black" stroke="black" points="1478.12,-180.5 1488.12,-177 1478.12,-173.5 1478.12,-180.5"/>
</g>
<!-- SobrenosComponent -->
<g id="node18" class="node">
<title>SobrenosComponent</title>
<polygon fill="#ffffb3" stroke="black" points="291.94,-122 158.06,-122 158.06,-86 291.94,-86 291.94,-122"/>
<text text-anchor="middle" x="225" y="-99.8" font-family="Times,serif" font-size="14.00">SobrenosComponent</text>
</g>
<!-- SobrenosComponent&#45;&gt;AppModule -->
<g id="edge18" class="edge">
<title>SobrenosComponent&#45;&gt;AppModule</title>
<path fill="none" stroke="black" d="M225,-122.01C225,-144.49 225,-180 225,-180 225,-180 1478.06,-180 1478.06,-180"/>
<polygon fill="black" stroke="black" points="1478.06,-183.5 1488.06,-180 1478.06,-176.5 1478.06,-183.5"/>
</g>
<!-- SocialComponent -->
<g id="node19" class="node">
<title>SocialComponent</title>
<polygon fill="#ffffb3" stroke="black" points="140.33,-122 23.67,-122 23.67,-86 140.33,-86 140.33,-122"/>
<text text-anchor="middle" x="82" y="-99.8" font-family="Times,serif" font-size="14.00">SocialComponent</text>
</g>
<!-- SocialComponent&#45;&gt;AppModule -->
<g id="edge19" class="edge">
<title>SocialComponent&#45;&gt;AppModule</title>
<path fill="none" stroke="black" d="M82,-122.15C82,-145.76 82,-184 82,-184 82,-184 1478.23,-184 1478.23,-184"/>
<polygon fill="black" stroke="black" points="1478.23,-187.5 1488.23,-184 1478.23,-180.5 1478.23,-187.5"/>
</g>
<!-- AppComponent  -->
<g id="node22" class="node">
<title>AppComponent </title>
<polygon fill="#80b1d3" stroke="black" points="1584.44,-252 1475.56,-252 1475.56,-216 1584.44,-216 1584.44,-252"/>
<text text-anchor="middle" x="1530" y="-229.8" font-family="Times,serif" font-size="14.00">AppComponent </text>
</g>
<!-- AppModule&#45;&gt;AppComponent  -->
<g id="edge21" class="edge">
<title>AppModule&#45;&gt;AppComponent </title>
<path fill="none" stroke="black" stroke-dasharray="1,5" d="M1530,-187.11C1530,-187.11 1530,-205.99 1530,-205.99"/>
<polygon fill="black" stroke="black" points="1526.5,-205.99 1530,-215.99 1533.5,-205.99 1526.5,-205.99"/>
</g>
<!-- AppRoutingModule -->
<g id="node21" class="node">
<title>AppRoutingModule</title>
<polygon fill="#8dd3c7" stroke="black" points="3084.27,-122 3081.27,-126 3060.27,-126 3057.27,-122 2955.73,-122 2955.73,-86 3084.27,-86 3084.27,-122"/>
<text text-anchor="middle" x="3020" y="-99.8" font-family="Times,serif" font-size="14.00">AppRoutingModule</text>
</g>
<!-- AppRoutingModule&#45;&gt;AppModule -->
<g id="edge20" class="edge">
<title>AppRoutingModule&#45;&gt;AppModule</title>
<path fill="none" stroke="black" d="M3020,-122.15C3020,-145.76 3020,-184 3020,-184 3020,-184 1581.8,-184 1581.8,-184"/>
<polygon fill="black" stroke="black" points="1581.8,-180.5 1571.8,-184 1581.8,-187.5 1581.8,-180.5"/>
</g>
</g>
</svg>
